<?xml version="1.0" encoding="UTF-8"?>
<svg width="800" height="800" viewBox="0 0 800 800" fill="none" xmlns="http://www.w3.org/2000/svg">
  <defs>
    <filter id="glow" x="-50%" y="-50%" width="200%" height="200%">
      <feGaussianBlur stdDeviation="6" result="blur"/>
      <feMerge>
        <feMergeNode in="blur"/>
        <feMergeNode in="SourceGraphic"/>
      </feMerge>
    </filter>
    <linearGradient id="boltGrad" x1="0" y1="0" x2="1" y2="1">
      <stop offset="0%" stop-color="#7cc8ff"/>
      <stop offset="100%" stop-color="#0084FF"/>
    </linearGradient>
  </defs>

  <!-- Cloud -->
  <g opacity="0.9" filter="url(#glow)">
    <path d="M240 420c-70 0-126-52-126-116 0-58 46-106 104-114 26-78 116-119 197-89 45 17 81 52 95 96 59-2 108 41 108 94 0 53-47 96-106 96H240z"
          fill="#0f0f10" stroke="#2b2b2b" stroke-width="3"/>
  </g>

  <!-- Lightning bolt -->
  <g filter="url(#glow)">
    <path d="M420 290 L355 420 H415 L370 530 L505 390 H440 L480 290 Z" fill="url(#boltGrad)" stroke="#a8ddff" stroke-opacity="0.7" stroke-width="2"/>
  </g>

  <!-- Soft highlight circles -->
  <g opacity="0.25">
    <circle cx="400" cy="360" r="180" fill="#0b2744"/>
    <circle cx="420" cy="340" r="110" fill="#0a3a3a"/>
  </g>
</svg>
